<mxfile host="app.diagrams.net" modified="2023-11-17T08:49:18.332Z" agent="Mozilla/5.0 (Windows NT 10.0; Win64; x64) AppleWebKit/537.36 (KHTML, like Gecko) Chrome/119.0.0.0 Safari/537.36" etag="2VCJVd5WALi0_pLE950-" version="22.1.2" type="device">
  <diagram name="Page-1" id="jVtoJJzkQxVqFZJQdSSs">
    <mxGraphModel dx="658" dy="1539" grid="1" gridSize="10" guides="1" tooltips="1" connect="1" arrows="1" fold="1" page="1" pageScale="1" pageWidth="850" pageHeight="1100" math="0" shadow="0">
      <root>
        <mxCell id="0" />
        <mxCell id="1" parent="0" />
        <mxCell id="HP2krg8jwbSp-eRZ_eJT-6" value="" style="endArrow=none;html=1;rounded=0;" edge="1" parent="1">
          <mxGeometry width="50" height="50" relative="1" as="geometry">
            <mxPoint x="320" y="450" as="sourcePoint" />
            <mxPoint x="320" y="360" as="targetPoint" />
          </mxGeometry>
        </mxCell>
        <mxCell id="HP2krg8jwbSp-eRZ_eJT-7" value="" style="endArrow=none;html=1;rounded=0;" edge="1" parent="1">
          <mxGeometry width="50" height="50" relative="1" as="geometry">
            <mxPoint x="520" y="710" as="sourcePoint" />
            <mxPoint x="520" y="360" as="targetPoint" />
          </mxGeometry>
        </mxCell>
        <mxCell id="HP2krg8jwbSp-eRZ_eJT-8" value="" style="endArrow=classic;html=1;rounded=0;fillColor=#dae8fc;strokeColor=#6c8ebf;" edge="1" parent="1">
          <mxGeometry width="50" height="50" relative="1" as="geometry">
            <mxPoint x="520" y="380" as="sourcePoint" />
            <mxPoint x="320" y="440" as="targetPoint" />
          </mxGeometry>
        </mxCell>
        <mxCell id="HP2krg8jwbSp-eRZ_eJT-9" value="send the b0 to A" style="edgeLabel;html=1;align=center;verticalAlign=middle;resizable=0;points=[];" vertex="1" connectable="0" parent="HP2krg8jwbSp-eRZ_eJT-8">
          <mxGeometry x="0.2108" relative="1" as="geometry">
            <mxPoint x="11" as="offset" />
          </mxGeometry>
        </mxCell>
        <mxCell id="HP2krg8jwbSp-eRZ_eJT-10" value="B = [b0, b1, ..., bn]" style="text;html=1;align=center;verticalAlign=middle;resizable=0;points=[];autosize=1;strokeColor=none;fillColor=none;" vertex="1" parent="1">
          <mxGeometry x="460" y="320" width="120" height="30" as="geometry" />
        </mxCell>
        <mxCell id="HP2krg8jwbSp-eRZ_eJT-12" value="A = [a0, a1, ..., an]" style="text;html=1;align=center;verticalAlign=middle;resizable=0;points=[];autosize=1;strokeColor=none;fillColor=none;" vertex="1" parent="1">
          <mxGeometry x="260" y="318" width="120" height="30" as="geometry" />
        </mxCell>
        <mxCell id="HP2krg8jwbSp-eRZ_eJT-14" value="check if an &amp;gt; b0" style="rounded=0;whiteSpace=wrap;html=1;fillColor=#E6E6E6;" vertex="1" parent="1">
          <mxGeometry x="260" y="450" width="120" height="60" as="geometry" />
        </mxCell>
        <mxCell id="HP2krg8jwbSp-eRZ_eJT-16" value="" style="endArrow=none;html=1;rounded=0;" edge="1" parent="1">
          <mxGeometry width="50" height="50" relative="1" as="geometry">
            <mxPoint x="320" y="940" as="sourcePoint" />
            <mxPoint x="319.66" y="510" as="targetPoint" />
          </mxGeometry>
        </mxCell>
        <mxCell id="HP2krg8jwbSp-eRZ_eJT-17" value="d" style="endArrow=classic;html=1;rounded=0;fillColor=#d5e8d4;strokeColor=#82b366;" edge="1" parent="1">
          <mxGeometry width="50" height="50" relative="1" as="geometry">
            <mxPoint x="320" y="520" as="sourcePoint" />
            <mxPoint x="520" y="570" as="targetPoint" />
          </mxGeometry>
        </mxCell>
        <mxCell id="HP2krg8jwbSp-eRZ_eJT-18" value="send max(an, b0)" style="edgeLabel;html=1;align=center;verticalAlign=middle;resizable=0;points=[];" vertex="1" connectable="0" parent="HP2krg8jwbSp-eRZ_eJT-17">
          <mxGeometry x="0.0208" y="3" relative="1" as="geometry">
            <mxPoint y="-1" as="offset" />
          </mxGeometry>
        </mxCell>
        <mxCell id="HP2krg8jwbSp-eRZ_eJT-19" value="assign b0 =&amp;nbsp;max(an, b0" style="rounded=0;whiteSpace=wrap;html=1;fillColor=#E6E6E6;" vertex="1" parent="1">
          <mxGeometry x="450" y="580" width="130" height="60" as="geometry" />
        </mxCell>
        <mxCell id="HP2krg8jwbSp-eRZ_eJT-20" value="do even/odd sort" style="rounded=0;whiteSpace=wrap;html=1;fillColor=#E6E6E6;" vertex="1" parent="1">
          <mxGeometry x="260" y="630" width="120" height="60" as="geometry" />
        </mxCell>
        <mxCell id="HP2krg8jwbSp-eRZ_eJT-21" value="" style="endArrow=none;html=1;rounded=0;" edge="1" parent="1">
          <mxGeometry width="50" height="50" relative="1" as="geometry">
            <mxPoint x="720" y="710" as="sourcePoint" />
            <mxPoint x="720" y="360" as="targetPoint" />
          </mxGeometry>
        </mxCell>
        <mxCell id="HP2krg8jwbSp-eRZ_eJT-22" value="C = [c0, ..., cn]" style="text;html=1;align=center;verticalAlign=middle;resizable=0;points=[];autosize=1;strokeColor=none;fillColor=none;" vertex="1" parent="1">
          <mxGeometry x="670" y="320" width="100" height="30" as="geometry" />
        </mxCell>
        <mxCell id="HP2krg8jwbSp-eRZ_eJT-23" value="" style="endArrow=classic;html=1;rounded=0;fillColor=#f8cecc;strokeColor=#b85450;" edge="1" parent="1">
          <mxGeometry width="50" height="50" relative="1" as="geometry">
            <mxPoint x="720" y="650" as="sourcePoint" />
            <mxPoint x="520" y="710" as="targetPoint" />
          </mxGeometry>
        </mxCell>
        <mxCell id="HP2krg8jwbSp-eRZ_eJT-26" value="send&amp;nbsp; the c0 to B" style="edgeLabel;html=1;align=center;verticalAlign=middle;resizable=0;points=[];" vertex="1" connectable="0" parent="HP2krg8jwbSp-eRZ_eJT-23">
          <mxGeometry x="-0.0084" y="3" relative="1" as="geometry">
            <mxPoint as="offset" />
          </mxGeometry>
        </mxCell>
        <mxCell id="HP2krg8jwbSp-eRZ_eJT-27" value="&lt;b&gt;...&lt;/b&gt;" style="text;html=1;align=center;verticalAlign=middle;resizable=0;points=[];autosize=1;strokeColor=none;fillColor=none;" vertex="1" parent="1">
          <mxGeometry x="605" y="708" width="30" height="30" as="geometry" />
        </mxCell>
        <mxCell id="HP2krg8jwbSp-eRZ_eJT-28" value="&lt;b&gt;...&lt;/b&gt;" style="text;html=1;align=center;verticalAlign=middle;resizable=0;points=[];autosize=1;strokeColor=none;fillColor=none;" vertex="1" parent="1">
          <mxGeometry x="395" y="708" width="30" height="30" as="geometry" />
        </mxCell>
        <mxCell id="HP2krg8jwbSp-eRZ_eJT-31" value="" style="endArrow=none;html=1;rounded=0;" edge="1" parent="1">
          <mxGeometry width="50" height="50" relative="1" as="geometry">
            <mxPoint x="520" y="940" as="sourcePoint" />
            <mxPoint x="519.66" y="738" as="targetPoint" />
          </mxGeometry>
        </mxCell>
        <mxCell id="HP2krg8jwbSp-eRZ_eJT-29" value="do even/odd sort" style="rounded=0;whiteSpace=wrap;html=1;fillColor=#E6E6E6;" vertex="1" parent="1">
          <mxGeometry x="460" y="750" width="120" height="60" as="geometry" />
        </mxCell>
        <mxCell id="HP2krg8jwbSp-eRZ_eJT-32" value="" style="endArrow=none;html=1;rounded=0;" edge="1" parent="1">
          <mxGeometry width="50" height="50" relative="1" as="geometry">
            <mxPoint x="720" y="940" as="sourcePoint" />
            <mxPoint x="719.66" y="780" as="targetPoint" />
          </mxGeometry>
        </mxCell>
        <mxCell id="HP2krg8jwbSp-eRZ_eJT-33" value="do even/odd sort" style="rounded=0;whiteSpace=wrap;html=1;fillColor=#E6E6E6;" vertex="1" parent="1">
          <mxGeometry x="660" y="792" width="120" height="60" as="geometry" />
        </mxCell>
        <mxCell id="HP2krg8jwbSp-eRZ_eJT-34" value="send to Master, any change in this iteration" style="rounded=0;whiteSpace=wrap;html=1;fillColor=#E6E6E6;" vertex="1" parent="1">
          <mxGeometry x="250" y="780" width="140" height="60" as="geometry" />
        </mxCell>
        <mxCell id="HP2krg8jwbSp-eRZ_eJT-35" value="send to Master, any change in this iteration" style="rounded=0;whiteSpace=wrap;html=1;fillColor=#E6E6E6;" vertex="1" parent="1">
          <mxGeometry x="450" y="852" width="140" height="60" as="geometry" />
        </mxCell>
        <mxCell id="HP2krg8jwbSp-eRZ_eJT-36" value="send to Master, any change in this iteration" style="rounded=0;whiteSpace=wrap;html=1;fillColor=#E6E6E6;" vertex="1" parent="1">
          <mxGeometry x="650" y="870" width="140" height="60" as="geometry" />
        </mxCell>
        <mxCell id="HP2krg8jwbSp-eRZ_eJT-38" value="" style="endArrow=classic;html=1;rounded=0;exitX=0.5;exitY=1;exitDx=0;exitDy=0;fillColor=#d5e8d4;strokeColor=#82b366;" edge="1" parent="1" source="HP2krg8jwbSp-eRZ_eJT-34">
          <mxGeometry width="50" height="50" relative="1" as="geometry">
            <mxPoint x="380" y="950" as="sourcePoint" />
            <mxPoint x="520" y="1020" as="targetPoint" />
          </mxGeometry>
        </mxCell>
        <mxCell id="HP2krg8jwbSp-eRZ_eJT-39" value="" style="endArrow=classic;html=1;rounded=0;exitX=0.5;exitY=1;exitDx=0;exitDy=0;fillColor=#dae8fc;strokeColor=#6c8ebf;" edge="1" parent="1" source="HP2krg8jwbSp-eRZ_eJT-35">
          <mxGeometry width="50" height="50" relative="1" as="geometry">
            <mxPoint x="330" y="850" as="sourcePoint" />
            <mxPoint x="520" y="1020" as="targetPoint" />
          </mxGeometry>
        </mxCell>
        <mxCell id="HP2krg8jwbSp-eRZ_eJT-40" value="" style="endArrow=classic;html=1;rounded=0;fillColor=#f8cecc;strokeColor=#b85450;" edge="1" parent="1">
          <mxGeometry width="50" height="50" relative="1" as="geometry">
            <mxPoint x="720" y="940" as="sourcePoint" />
            <mxPoint x="520" y="1020" as="targetPoint" />
          </mxGeometry>
        </mxCell>
        <mxCell id="HP2krg8jwbSp-eRZ_eJT-42" value="Change to even/odd sort" style="text;html=1;align=center;verticalAlign=middle;resizable=0;points=[];autosize=1;strokeColor=none;fillColor=none;" vertex="1" parent="1">
          <mxGeometry x="445" y="1018" width="150" height="30" as="geometry" />
        </mxCell>
      </root>
    </mxGraphModel>
  </diagram>
</mxfile>
